<svg width="600" height="112" viewBox="0 0 600 112" fill="none" xmlns="http://www.w3.org/2000/svg">
<path d="M0 25.6C0 16.6392 0 12.1587 1.7439 8.73615C3.27787 5.72556 5.72556 3.27787 8.73615 1.7439C12.1587 0 16.6392 0 25.6 0H574.4C583.361 0 587.841 0 591.264 1.7439C594.274 3.27787 596.722 5.72556 598.256 8.73615C600 12.1587 600 16.6392 600 25.6V86.4C600 95.3608 600 99.8413 598.256 103.264C596.722 106.274 594.274 108.722 591.264 110.256C587.841 112 583.361 112 574.4 112H25.6C16.6391 112 12.1587 112 8.73615 110.256C5.72556 108.722 3.27787 106.274 1.7439 103.264C0 99.8413 0 95.3608 0 86.4V25.6Z" fill="white"/>
<path d="M25.5996 0.25H574.4C578.885 0.25 582.233 0.249841 584.889 0.466797C587.541 0.683527 589.48 1.11582 591.15 1.9668C594.114 3.47679 596.523 5.88613 598.033 8.84961C598.884 10.5197 599.316 12.4589 599.533 15.1113C599.75 17.7667 599.75 21.1153 599.75 25.5996V86.4004C599.75 90.8847 599.75 94.2333 599.533 96.8887C599.316 99.5411 598.884 101.48 598.033 103.15C596.523 106.114 594.114 108.523 591.15 110.033C589.48 110.884 587.541 111.316 584.889 111.533C582.233 111.75 578.885 111.75 574.4 111.75H25.5996C21.1153 111.75 17.7667 111.75 15.1113 111.533C12.4589 111.316 10.5197 110.884 8.84961 110.033C5.88613 108.523 3.47679 106.114 1.9668 103.15C1.11582 101.48 0.683527 99.5411 0.466797 96.8887C0.249841 94.2333 0.25 90.8847 0.25 86.4004V25.5996C0.25 21.1153 0.249841 17.7667 0.466797 15.1113C0.683527 12.4589 1.11582 10.5197 1.9668 8.84961C3.47679 5.88613 5.88613 3.47679 8.84961 1.9668C10.5197 1.11582 12.4589 0.683527 15.1113 0.466797C17.7667 0.249841 21.1153 0.25 25.5996 0.25Z" stroke="black" stroke-opacity="0.1" stroke-width="0.5"/>
<path d="M22.7841 17.5369V34.2812H21.7898V17.5369H22.7841ZM30.1681 31H28.8755L32.6142 20.8182H33.8869L37.6255 31H36.3329L33.2903 22.429H33.2108L30.1681 31ZM30.6454 27.0227H35.8556V28.1165H30.6454V27.0227ZM44.72 31L42.3933 23.3636H43.6262L45.2768 29.2102H45.3564L46.987 23.3636H48.2399L49.8507 29.1903H49.9302L51.5808 23.3636H52.8137L50.487 31H49.3336L47.6632 25.1335H47.5439L45.8734 31H44.72ZM55.5382 26.4062V31H54.3649V20.8182H55.5382V24.5568H55.6376C55.8166 24.1624 56.085 23.8492 56.443 23.6172C56.8043 23.3819 57.2849 23.2642 57.8848 23.2642C58.4051 23.2642 58.8609 23.3686 59.252 23.5774C59.6431 23.7829 59.9463 24.0994 60.1618 24.527C60.3805 24.9512 60.4899 25.4915 60.4899 26.1477V31H59.3166V26.2273C59.3166 25.6207 59.1592 25.1518 58.8443 24.8203C58.5327 24.4856 58.1002 24.3182 57.5467 24.3182C57.1622 24.3182 56.8175 24.3994 56.5126 24.5618C56.211 24.7242 55.9724 24.9612 55.7967 25.2727C55.6243 25.5843 55.5382 25.9621 55.5382 26.4062ZM65.7386 31.1591C65.0492 31.1591 64.4444 30.995 63.924 30.6669C63.407 30.3388 63.0026 29.8797 62.7109 29.2898C62.4226 28.6998 62.2784 28.0104 62.2784 27.2216C62.2784 26.4261 62.4226 25.7318 62.7109 25.1385C63.0026 24.5452 63.407 24.0845 63.924 23.7564C64.4444 23.4283 65.0492 23.2642 65.7386 23.2642C66.428 23.2642 67.0313 23.4283 67.5483 23.7564C68.0687 24.0845 68.473 24.5452 68.7614 25.1385C69.053 25.7318 69.1989 26.4261 69.1989 27.2216C69.1989 28.0104 69.053 28.6998 68.7614 29.2898C68.473 29.8797 68.0687 30.3388 67.5483 30.6669C67.0313 30.995 66.428 31.1591 65.7386 31.1591ZM65.7386 30.1051C66.2623 30.1051 66.6932 29.9709 67.0312 29.7024C67.3693 29.4339 67.6196 29.081 67.782 28.6435C67.9444 28.206 68.0256 27.732 68.0256 27.2216C68.0256 26.7112 67.9444 26.2356 67.782 25.7947C67.6196 25.3539 67.3693 24.9976 67.0312 24.7259C66.6932 24.4541 66.2623 24.3182 65.7386 24.3182C65.215 24.3182 64.7841 24.4541 64.446 24.7259C64.108 24.9976 63.8577 25.3539 63.6953 25.7947C63.5329 26.2356 63.4517 26.7112 63.4517 27.2216C63.4517 27.732 63.5329 28.206 63.6953 28.6435C63.8577 29.081 64.108 29.4339 64.446 29.7024C64.7841 29.9709 65.215 30.1051 65.7386 30.1051ZM72.1632 20.8182V31H70.9899V20.8182H72.1632ZM77.5138 31.1591C76.7781 31.1591 76.1433 30.9967 75.6097 30.6719C75.0794 30.3438 74.6701 29.8864 74.3817 29.2997C74.0967 28.7098 73.9542 28.0237 73.9542 27.2415C73.9542 26.4593 74.0967 25.7699 74.3817 25.1733C74.6701 24.5734 75.0711 24.1061 75.5849 23.7713C76.1019 23.4332 76.7051 23.2642 77.3945 23.2642C77.7923 23.2642 78.185 23.3305 78.5728 23.4631C78.9606 23.5956 79.3136 23.8111 79.6317 24.1094C79.9499 24.4044 80.2035 24.7955 80.3924 25.2827C80.5813 25.7699 80.6758 26.3698 80.6758 27.0824V27.5795H74.7894V26.5653H79.4826C79.4826 26.1345 79.3964 25.75 79.2241 25.4119C79.055 25.0739 78.8131 24.8071 78.4982 24.6115C78.1867 24.416 77.8188 24.3182 77.3945 24.3182C76.9272 24.3182 76.5228 24.4342 76.1815 24.6662C75.8434 24.8949 75.5832 25.1932 75.4009 25.5611C75.2186 25.929 75.1275 26.3234 75.1275 26.7443V27.4205C75.1275 27.9972 75.2269 28.486 75.4258 28.8871C75.628 29.2848 75.908 29.5881 76.266 29.7969C76.6239 30.0024 77.0399 30.1051 77.5138 30.1051C77.8221 30.1051 78.1005 30.062 78.3491 29.9759C78.601 29.8864 78.8181 29.7538 79.0004 29.5781C79.1826 29.3991 79.3235 29.1771 79.4229 28.9119L80.5565 29.2301C80.4371 29.6146 80.2366 29.9527 79.9549 30.2443C79.6732 30.5327 79.3252 30.758 78.9109 30.9205C78.4966 31.0795 78.0309 31.1591 77.5138 31.1591ZM87.5714 26.4062V31H86.3981V23.3636H87.5316V24.5568H87.631C87.81 24.169 88.0818 23.8575 88.4464 23.6222C88.811 23.3835 89.2816 23.2642 89.8583 23.2642C90.3754 23.2642 90.8278 23.3703 91.2156 23.5824C91.6033 23.7912 91.9049 24.1094 92.1204 24.5369C92.3358 24.9612 92.4435 25.4981 92.4435 26.1477V31H91.2702V26.2273C91.2702 25.6274 91.1145 25.16 90.8029 24.8253C90.4914 24.4872 90.0638 24.3182 89.5202 24.3182C89.1457 24.3182 88.811 24.3994 88.516 24.5618C88.2243 24.7242 87.994 24.9612 87.8249 25.2727C87.6559 25.5843 87.5714 25.9621 87.5714 26.4062ZM97.7892 31.1591C97.0534 31.1591 96.4187 30.9967 95.8851 30.6719C95.3548 30.3438 94.9455 29.8864 94.6571 29.2997C94.3721 28.7098 94.2296 28.0237 94.2296 27.2415C94.2296 26.4593 94.3721 25.7699 94.6571 25.1733C94.9455 24.5734 95.3465 24.1061 95.8603 23.7713C96.3773 23.4332 96.9805 23.2642 97.6699 23.2642C98.0676 23.2642 98.4604 23.3305 98.8482 23.4631C99.236 23.5956 99.589 23.8111 99.9071 24.1094C100.225 24.4044 100.479 24.7955 100.668 25.2827C100.857 25.7699 100.951 26.3698 100.951 27.0824V27.5795H95.0648V26.5653H99.758C99.758 26.1345 99.6718 25.75 99.4995 25.4119C99.3304 25.0739 99.0885 24.8071 98.7736 24.6115C98.4621 24.416 98.0942 24.3182 97.6699 24.3182C97.2026 24.3182 96.7982 24.4342 96.4569 24.6662C96.1188 24.8949 95.8586 25.1932 95.6763 25.5611C95.494 25.929 95.4029 26.3234 95.4029 26.7443V27.4205C95.4029 27.9972 95.5023 28.486 95.7012 28.8871C95.9033 29.2848 96.1834 29.5881 96.5414 29.7969C96.8993 30.0024 97.3153 30.1051 97.7892 30.1051C98.0975 30.1051 98.3759 30.062 98.6245 29.9759C98.8764 29.8864 99.0935 29.7538 99.2757 29.5781C99.458 29.3991 99.5989 29.1771 99.6983 28.9119L100.832 29.2301C100.713 29.6146 100.512 29.9527 100.23 30.2443C99.9486 30.5327 99.6006 30.758 99.1863 30.9205C98.772 31.0795 98.3063 31.1591 97.7892 31.1591ZM104.466 31L102.139 23.3636H103.372L105.023 29.2102H105.102L106.733 23.3636H107.986L109.597 29.1903H109.676L111.327 23.3636H112.56L110.233 31H109.08L107.409 25.1335H107.29L105.619 31H104.466ZM119.779 31L117.452 23.3636H118.685L120.335 29.2102H120.415L122.046 23.3636H123.298L124.909 29.1903H124.989L126.639 23.3636H127.872L125.546 31H124.392L122.722 25.1335H122.602L120.932 31H119.779ZM131.671 31.179C131.187 31.179 130.748 31.0878 130.353 30.9055C129.959 30.7199 129.646 30.4531 129.414 30.1051C129.182 29.7538 129.066 29.3295 129.066 28.8324C129.066 28.3949 129.152 28.0402 129.324 27.7685C129.496 27.4934 129.727 27.2779 130.015 27.1222C130.303 26.9664 130.622 26.8504 130.97 26.7741C131.321 26.6946 131.674 26.6316 132.029 26.5852C132.493 26.5256 132.869 26.4808 133.157 26.451C133.449 26.4179 133.661 26.3632 133.794 26.2869C133.929 26.2107 133.997 26.0781 133.997 25.8892V25.8494C133.997 25.3589 133.863 24.9777 133.595 24.706C133.329 24.4342 132.927 24.2983 132.387 24.2983C131.826 24.2983 131.387 24.4209 131.069 24.6662C130.751 24.9115 130.527 25.1733 130.398 25.4517L129.284 25.054C129.483 24.59 129.748 24.2287 130.08 23.9702C130.414 23.7083 130.779 23.526 131.173 23.4233C131.571 23.3172 131.962 23.2642 132.347 23.2642C132.592 23.2642 132.874 23.294 133.192 23.3537C133.513 23.41 133.823 23.5277 134.122 23.7067C134.423 23.8857 134.673 24.1558 134.872 24.517C135.071 24.8783 135.171 25.3622 135.171 25.9688V31H133.997V29.9659H133.938C133.858 30.1316 133.726 30.3089 133.54 30.4979C133.354 30.6868 133.107 30.8475 132.799 30.9801C132.491 31.1127 132.115 31.179 131.671 31.179ZM131.85 30.125C132.314 30.125 132.705 30.0339 133.023 29.8516C133.344 29.6693 133.586 29.4339 133.749 29.1456C133.914 28.8572 133.997 28.554 133.997 28.2358V27.1619C133.948 27.2216 133.838 27.2763 133.669 27.326C133.503 27.3724 133.311 27.4138 133.093 27.4503C132.877 27.4834 132.667 27.5133 132.461 27.5398C132.259 27.563 132.095 27.5829 131.969 27.5994C131.664 27.6392 131.379 27.7038 131.114 27.7933C130.852 27.8795 130.64 28.0104 130.477 28.1861C130.318 28.3584 130.239 28.5937 130.239 28.892C130.239 29.2997 130.39 29.608 130.691 29.8168C130.996 30.0223 131.382 30.125 131.85 30.125ZM137.794 33.8636C137.596 33.8636 137.418 33.8471 137.262 33.8139C137.107 33.7841 136.999 33.7543 136.939 33.7244L137.238 32.6903C137.523 32.7633 137.775 32.7898 137.993 32.7699C138.212 32.75 138.406 32.6522 138.575 32.4766C138.747 32.3042 138.905 32.0241 139.047 31.6364L139.266 31.0398L136.442 23.3636H137.715L139.823 29.4489H139.902L142.01 23.3636H143.283L140.042 32.1136C139.896 32.508 139.715 32.8345 139.5 33.093C139.284 33.3549 139.034 33.5488 138.749 33.6747C138.467 33.8007 138.149 33.8636 137.794 33.8636ZM152.09 23.3636V24.358H148.133V23.3636H152.09ZM149.286 21.5341H150.46V28.8125C150.46 29.1439 150.508 29.3925 150.604 29.5582C150.703 29.7206 150.829 29.83 150.982 29.8864C151.137 29.9394 151.301 29.9659 151.474 29.9659C151.603 29.9659 151.709 29.9593 151.792 29.946C151.875 29.9295 151.941 29.9162 151.991 29.9062L152.229 30.9602C152.15 30.9901 152.039 31.0199 151.896 31.0497C151.754 31.0829 151.573 31.0994 151.354 31.0994C151.023 31.0994 150.698 31.0282 150.38 30.8857C150.065 30.7431 149.803 30.526 149.594 30.2344C149.389 29.9427 149.286 29.5748 149.286 29.1307V21.5341ZM156.875 31.1591C156.186 31.1591 155.581 30.995 155.061 30.6669C154.544 30.3388 154.139 29.8797 153.848 29.2898C153.559 28.6998 153.415 28.0104 153.415 27.2216C153.415 26.4261 153.559 25.7318 153.848 25.1385C154.139 24.5452 154.544 24.0845 155.061 23.7564C155.581 23.4283 156.186 23.2642 156.875 23.2642C157.565 23.2642 158.168 23.4283 158.685 23.7564C159.205 24.0845 159.61 24.5452 159.898 25.1385C160.19 25.7318 160.336 26.4261 160.336 27.2216C160.336 28.0104 160.19 28.6998 159.898 29.2898C159.61 29.8797 159.205 30.3388 158.685 30.6669C158.168 30.995 157.565 31.1591 156.875 31.1591ZM156.875 30.1051C157.399 30.1051 157.83 29.9709 158.168 29.7024C158.506 29.4339 158.756 29.081 158.919 28.6435C159.081 28.206 159.162 27.732 159.162 27.2216C159.162 26.7112 159.081 26.2356 158.919 25.7947C158.756 25.3539 158.506 24.9976 158.168 24.7259C157.83 24.4541 157.399 24.3182 156.875 24.3182C156.352 24.3182 155.921 24.4541 155.583 24.7259C155.245 24.9976 154.994 25.3539 154.832 25.7947C154.67 26.2356 154.588 26.7112 154.588 27.2216C154.588 27.732 154.67 28.206 154.832 28.6435C154.994 29.081 155.245 29.4339 155.583 29.7024C155.921 29.9709 156.352 30.1051 156.875 30.1051ZM167.794 31L165.468 23.3636H166.7L168.351 29.2102H168.431L170.061 23.3636H171.314L172.925 29.1903H173.004L174.655 23.3636H175.888L173.561 31H172.408L170.737 25.1335H170.618L168.948 31H167.794ZM180.282 31.1591C179.592 31.1591 178.987 30.995 178.467 30.6669C177.95 30.3388 177.546 29.8797 177.254 29.2898C176.966 28.6998 176.821 28.0104 176.821 27.2216C176.821 26.4261 176.966 25.7318 177.254 25.1385C177.546 24.5452 177.95 24.0845 178.467 23.7564C178.987 23.4283 179.592 23.2642 180.282 23.2642C180.971 23.2642 181.574 23.4283 182.091 23.7564C182.612 24.0845 183.016 24.5452 183.304 25.1385C183.596 25.7318 183.742 26.4261 183.742 27.2216C183.742 28.0104 183.596 28.6998 183.304 29.2898C183.016 29.8797 182.612 30.3388 182.091 30.6669C181.574 30.995 180.971 31.1591 180.282 31.1591ZM180.282 30.1051C180.805 30.1051 181.236 29.9709 181.574 29.7024C181.912 29.4339 182.163 29.081 182.325 28.6435C182.487 28.206 182.569 27.732 182.569 27.2216C182.569 26.7112 182.487 26.2356 182.325 25.7947C182.163 25.3539 181.912 24.9976 181.574 24.7259C181.236 24.4541 180.805 24.3182 180.282 24.3182C179.758 24.3182 179.327 24.4541 178.989 24.7259C178.651 24.9976 178.401 25.3539 178.238 25.7947C178.076 26.2356 177.995 26.7112 177.995 27.2216C177.995 27.732 178.076 28.206 178.238 28.6435C178.401 29.081 178.651 29.4339 178.989 29.7024C179.327 29.9709 179.758 30.1051 180.282 30.1051ZM185.533 31V23.3636H186.666V24.517H186.746C186.885 24.1392 187.137 23.8326 187.502 23.5973C187.866 23.362 188.277 23.2443 188.735 23.2443C188.821 23.2443 188.928 23.246 189.058 23.2493C189.187 23.2526 189.285 23.2576 189.351 23.2642V24.4574C189.311 24.4474 189.22 24.4325 189.078 24.4126C188.938 24.3894 188.791 24.3778 188.635 24.3778C188.264 24.3778 187.932 24.4557 187.641 24.6115C187.352 24.764 187.124 24.9761 186.955 25.2479C186.789 25.5163 186.706 25.8229 186.706 26.1676V31H185.533ZM191.836 28.2159L191.816 26.7642H192.054L195.395 23.3636H196.847L193.287 26.9631H193.188L191.836 28.2159ZM190.742 31V20.8182H191.915V31H190.742ZM195.594 31L192.611 27.2216L193.446 26.4062L197.086 31H195.594ZM199.212 31.0795C198.967 31.0795 198.756 30.9917 198.581 30.8161C198.405 30.6404 198.317 30.4299 198.317 30.1847C198.317 29.9394 198.405 29.7289 198.581 29.5533C198.756 29.3776 198.967 29.2898 199.212 29.2898C199.457 29.2898 199.668 29.3776 199.844 29.5533C200.019 29.7289 200.107 29.9394 200.107 30.1847C200.107 30.3471 200.066 30.4962 199.983 30.6321C199.903 30.768 199.796 30.8774 199.66 30.9602C199.527 31.0398 199.378 31.0795 199.212 31.0795Z" fill="black"/>
<path d="M23.75 56.1193C23.108 56.1193 22.5611 55.9446 22.1094 55.5952C21.6577 55.2429 21.3125 54.733 21.0739 54.0653C20.8352 53.3949 20.7159 52.5852 20.7159 51.6364C20.7159 50.6932 20.8352 49.8878 21.0739 49.2202C21.3153 48.5497 21.6619 48.0384 22.1136 47.6861C22.5682 47.331 23.1136 47.1534 23.75 47.1534C24.3864 47.1534 24.9304 47.331 25.3821 47.6861C25.8366 48.0384 26.1832 48.5497 26.4219 49.2202C26.6634 49.8878 26.7841 50.6932 26.7841 51.6364C26.7841 52.5852 26.6648 53.3949 26.4261 54.0653C26.1875 54.733 25.8423 55.2429 25.3906 55.5952C24.9389 55.9446 24.392 56.1193 23.75 56.1193ZM23.75 55.1818C24.3864 55.1818 24.8807 54.875 25.233 54.2614C25.5852 53.6477 25.7614 52.7727 25.7614 51.6364C25.7614 50.8807 25.6804 50.2372 25.5185 49.706C25.3594 49.1747 25.1293 48.7699 24.8281 48.4915C24.5298 48.2131 24.1705 48.0739 23.75 48.0739C23.1193 48.0739 22.6264 48.3849 22.2713 49.0071C21.9162 49.6264 21.7386 50.5028 21.7386 51.6364C21.7386 52.392 21.8182 53.0341 21.9773 53.5625C22.1364 54.0909 22.3651 54.4929 22.6634 54.7685C22.9645 55.044 23.3267 55.1818 23.75 55.1818ZM31.5057 46.8636L28.6932 57.3125H27.7727L30.5852 46.8636H31.5057ZM35.408 56.1193C34.908 56.1193 34.4577 56.0199 34.0572 55.821C33.6566 55.6222 33.3356 55.3494 33.0941 55.0028C32.8526 54.6562 32.7205 54.2614 32.6978 53.8182H33.7205C33.7603 54.2131 33.9393 54.5398 34.2575 54.7983C34.5785 55.054 34.962 55.1818 35.408 55.1818C35.766 55.1818 36.0842 55.098 36.3626 54.9304C36.6438 54.7628 36.864 54.5327 37.0231 54.2401C37.185 53.9446 37.266 53.6108 37.266 53.2386C37.266 52.858 37.1822 52.5185 37.0146 52.2202C36.8498 51.919 36.6225 51.6818 36.3327 51.5085C36.043 51.3352 35.712 51.2472 35.3398 51.2443C35.0728 51.2415 34.7987 51.2827 34.5174 51.3679C34.2362 51.4503 34.0046 51.5568 33.8228 51.6875L32.8342 51.5682L33.3626 47.2727H37.8967V48.2102H34.2489L33.9421 50.7841H33.9933C34.1722 50.642 34.3967 50.5241 34.6665 50.4304C34.9364 50.3366 35.2177 50.2898 35.5103 50.2898C36.0444 50.2898 36.5202 50.4176 36.9379 50.6733C37.3583 50.9261 37.6879 51.2727 37.9265 51.7131C38.168 52.1534 38.2887 52.6562 38.2887 53.2216C38.2887 53.7784 38.1637 54.2756 37.9137 54.7131C37.6665 55.1477 37.3256 55.4915 36.891 55.7443C36.4563 55.9943 35.962 56.1193 35.408 56.1193ZM42.8281 56.1193C42.1861 56.1193 41.6392 55.9446 41.1875 55.5952C40.7358 55.2429 40.3906 54.733 40.152 54.0653C39.9134 53.3949 39.794 52.5852 39.794 51.6364C39.794 50.6932 39.9134 49.8878 40.152 49.2202C40.3935 48.5497 40.7401 48.0384 41.1918 47.6861C41.6463 47.331 42.1918 47.1534 42.8281 47.1534C43.4645 47.1534 44.0085 47.331 44.4602 47.6861C44.9148 48.0384 45.2614 48.5497 45.5 49.2202C45.7415 49.8878 45.8622 50.6932 45.8622 51.6364C45.8622 52.5852 45.7429 53.3949 45.5043 54.0653C45.2656 54.733 44.9205 55.2429 44.4688 55.5952C44.017 55.9446 43.4702 56.1193 42.8281 56.1193ZM42.8281 55.1818C43.4645 55.1818 43.9588 54.875 44.3111 54.2614C44.6634 53.6477 44.8395 52.7727 44.8395 51.6364C44.8395 50.8807 44.7585 50.2372 44.5966 49.706C44.4375 49.1747 44.2074 48.7699 43.9062 48.4915C43.608 48.2131 43.2486 48.0739 42.8281 48.0739C42.1974 48.0739 41.7045 48.3849 41.3494 49.0071C40.9943 49.6264 40.8168 50.5028 40.8168 51.6364C40.8168 52.392 40.8963 53.0341 41.0554 53.5625C41.2145 54.0909 41.4432 54.4929 41.7415 54.7685C42.0426 55.044 42.4048 55.1818 42.8281 55.1818ZM50.3281 56.1193C49.6861 56.1193 49.1392 55.9446 48.6875 55.5952C48.2358 55.2429 47.8906 54.733 47.652 54.0653C47.4134 53.3949 47.294 52.5852 47.294 51.6364C47.294 50.6932 47.4134 49.8878 47.652 49.2202C47.8935 48.5497 48.2401 48.0384 48.6918 47.6861C49.1463 47.331 49.6918 47.1534 50.3281 47.1534C50.9645 47.1534 51.5085 47.331 51.9602 47.6861C52.4148 48.0384 52.7614 48.5497 53 49.2202C53.2415 49.8878 53.3622 50.6932 53.3622 51.6364C53.3622 52.5852 53.2429 53.3949 53.0043 54.0653C52.7656 54.733 52.4205 55.2429 51.9688 55.5952C51.517 55.9446 50.9702 56.1193 50.3281 56.1193ZM50.3281 55.1818C50.9645 55.1818 51.4588 54.875 51.8111 54.2614C52.1634 53.6477 52.3395 52.7727 52.3395 51.6364C52.3395 50.8807 52.2585 50.2372 52.0966 49.706C51.9375 49.1747 51.7074 48.7699 51.4062 48.4915C51.108 48.2131 50.7486 48.0739 50.3281 48.0739C49.6974 48.0739 49.2045 48.3849 48.8494 49.0071C48.4943 49.6264 48.3168 50.5028 48.3168 51.6364C48.3168 52.392 48.3963 53.0341 48.5554 53.5625C48.7145 54.0909 48.9432 54.4929 49.2415 54.7685C49.5426 55.044 49.9048 55.1818 50.3281 55.1818Z" fill="black" fill-opacity="0.2"/>
<path fill-rule="evenodd" clip-rule="evenodd" d="M24.4377 76.2269L23.6495 78.3569C23.428 78.9557 22.9559 79.4277 22.3571 79.6493L20.2271 80.4375L22.3571 81.2256C22.9559 81.4472 23.428 81.9193 23.6495 82.518L24.4377 84.648L25.2259 82.518C25.4474 81.9193 25.9195 81.4472 26.5183 81.2256L28.6483 80.4375L26.5183 79.6493C25.9195 79.4277 25.4474 78.9557 25.2259 78.3569L24.4377 76.2269ZM25.317 75.0011C25.0149 74.1849 23.8605 74.1849 23.5585 75.0011L22.4772 77.9231C22.3823 78.1797 22.18 78.382 21.9233 78.477L19.0013 79.5582C18.1851 79.8603 18.1851 81.0147 19.0013 81.3167L21.9233 82.398C22.18 82.4929 22.3823 82.6952 22.4772 82.9518L23.5585 85.8739C23.8605 86.6901 25.0149 86.6901 25.317 85.8739L26.3982 82.9518C26.4932 82.6952 26.6955 82.4929 26.9521 82.398L29.8741 81.3167C30.6903 81.0147 30.6903 79.8603 29.8741 79.5582L26.9521 78.477C26.6955 78.382 26.4932 78.1797 26.3982 77.9231L25.317 75.0011Z" fill="black"/>
<path fill-rule="evenodd" clip-rule="evenodd" d="M30.6876 84.7014L30.4005 85.4773C30.2423 85.905 29.905 86.2422 29.4774 86.4004L28.7015 86.6875L29.4774 86.9746C29.9051 87.1328 30.2423 87.47 30.4005 87.8977L30.6876 88.6736L30.9747 87.8977C31.1329 87.47 31.4701 87.1328 31.8978 86.9746L32.6736 86.6875L31.8978 86.4004C31.4701 86.2422 31.1329 85.905 30.9747 85.4773L30.6876 84.7014ZM31.2738 83.5841C31.0724 83.0399 30.3028 83.0399 30.1014 83.5841L29.5213 85.1519C29.458 85.323 29.3231 85.4579 29.152 85.5212L27.5842 86.1013C27.04 86.3027 27.04 87.0723 27.5842 87.2737L29.152 87.8538C29.3231 87.9171 29.458 88.052 29.5213 88.2231L30.1014 89.7909C30.3028 90.3351 31.0724 90.3351 31.2738 89.7909L31.8539 88.2231C31.9172 88.052 32.0521 87.9171 32.2232 87.8538L33.791 87.2737C34.3352 87.0723 34.3352 86.3027 33.791 86.1013L32.2232 85.5212C32.0521 85.4579 31.9172 85.323 31.8539 85.1519L31.2738 83.5841Z" fill="black"/>
<path d="M68.3799 81.5578C68.438 81.6159 68.4841 81.6848 68.5156 81.7607C68.547 81.8365 68.5632 81.9179 68.5632 82C68.5632 82.0821 68.547 82.1635 68.5156 82.2393C68.4841 82.3152 68.438 82.3841 68.3799 82.4422L61.9697 88.8484C61.1491 89.669 60.0362 90.1299 58.8757 90.1298C57.7153 90.1297 56.6024 89.6687 55.7818 88.848C54.9613 88.0274 54.5004 86.9145 54.5005 85.754C54.5006 84.5936 54.9616 83.4807 55.7822 82.6602L63.5369 74.7914C64.1228 74.2049 64.9176 73.8752 65.7466 73.8748C66.5756 73.8743 67.3708 74.2032 67.9572 74.7891C68.5437 75.3749 68.8734 76.1698 68.8739 76.9987C68.8743 77.8277 68.5454 78.6229 67.9596 79.2094L60.2033 87.0781C59.8511 87.4304 59.3733 87.6283 58.8752 87.6283C58.3771 87.6283 57.8993 87.4304 57.5471 87.0781C57.1948 86.7259 56.997 86.2481 56.997 85.75C56.997 85.2519 57.1948 84.7741 57.5471 84.4219L64.0549 77.8109C64.1119 77.7501 64.1805 77.7013 64.2566 77.6674C64.3328 77.6335 64.415 77.6152 64.4983 77.6135C64.5816 77.6118 64.6645 77.6268 64.7419 77.6577C64.8194 77.6885 64.8899 77.7345 64.9493 77.7929C65.0087 77.8514 65.0558 77.9212 65.0879 77.9981C65.1199 78.0751 65.1362 78.1577 65.1359 78.241C65.1355 78.3244 65.1185 78.4068 65.0858 78.4835C65.0531 78.5602 65.0054 78.6295 64.9455 78.6875L58.4369 85.3055C58.3787 85.3633 58.3323 85.432 58.3006 85.5077C58.2689 85.5834 58.2524 85.6646 58.2521 85.7467C58.2518 85.8288 58.2676 85.9102 58.2987 85.9861C58.3298 86.0621 58.3756 86.1312 58.4334 86.1895C58.4912 86.2477 58.5599 86.294 58.6357 86.3258C58.7114 86.3575 58.7926 86.374 58.8747 86.3743C58.9568 86.3746 59.0381 86.3588 59.1141 86.3277C59.19 86.2965 59.2591 86.2508 59.3174 86.193L67.0729 78.3281C67.4251 77.9766 67.6233 77.4996 67.6238 77.0019C67.6243 76.5043 67.4271 76.0268 67.0756 75.6746C66.7241 75.3224 66.247 75.1242 65.7494 75.1237C65.2518 75.1232 64.7743 75.3204 64.4221 75.6719L56.669 83.5375C56.3785 83.8275 56.148 84.1718 55.9907 84.5509C55.8333 84.93 55.7521 85.3363 55.7518 85.7467C55.7515 86.1572 55.832 86.5636 55.9888 86.9429C56.1455 87.3223 56.3755 87.667 56.6654 87.9574C56.9554 88.2479 57.2998 88.4784 57.6788 88.6357C58.0579 88.7931 58.4642 88.8742 58.8747 88.8746C59.2851 88.8749 59.6916 88.7944 60.0709 88.6376C60.4502 88.4809 60.7949 88.2509 61.0854 87.9609L67.4963 81.5547C67.6139 81.438 67.7731 81.3727 67.9387 81.3733C68.1044 81.3739 68.2631 81.4403 68.3799 81.5578Z" fill="black"/>
<path d="M581.49 80.9062L568.365 73.4148C568.144 73.2907 567.89 73.2369 567.637 73.2604C567.385 73.284 567.145 73.3838 566.951 73.5466C566.756 73.7095 566.616 73.9277 566.548 74.1722C566.481 74.4167 566.489 74.676 566.573 74.9156L568.995 81.9836C568.994 81.9862 568.994 81.9888 568.995 81.9914C568.994 81.994 568.994 81.9966 568.995 81.9992L566.573 89.0828C566.506 89.2713 566.485 89.473 566.513 89.6711C566.54 89.8691 566.615 90.0577 566.73 90.221C566.845 90.3844 566.998 90.5176 567.176 90.6097C567.353 90.7017 567.55 90.7498 567.75 90.75C567.967 90.7494 568.18 90.6929 568.369 90.5859L581.487 83.082C581.68 82.9736 581.841 82.8157 581.954 82.6244C582.066 82.4332 582.125 82.2155 582.126 81.9937C582.126 81.7719 582.068 81.554 581.956 81.3623C581.844 81.1707 581.684 81.0122 581.491 80.9031L581.49 80.9062ZM567.75 89.5V89.4929L570.105 82.625H574.625C574.791 82.625 574.95 82.5591 575.067 82.4419C575.184 82.3247 575.25 82.1657 575.25 82C575.25 81.8342 575.184 81.6752 575.067 81.558C574.95 81.4408 574.791 81.375 574.625 81.375H570.111L567.755 74.5093L567.75 74.5L580.875 81.9867L567.75 89.5Z" fill="black"/>
</svg>
