<?xml version="1.0" encoding="UTF-8"?>
<svg version="1.1" xmlns="http://www.w3.org/2000/svg" width="24" height="24">
<path d="M0 0 C3.125 1.875 3.125 1.875 5 5 C5.98876625 10.02622846 5.7769173 13.70513784 3.125 18.125 C-1.29486216 20.7769173 -4.97377154 20.98876625 -10 20 C-13.125 18.125 -13.125 18.125 -15 15 C-15.98876625 9.97377154 -15.7769173 6.29486216 -13.125 1.875 C-8.70513784 -0.7769173 -5.02622846 -0.98876625 0 0 Z M-10.375 4.625 C-12.48706506 7.71186432 -12.61195145 9.3282913 -12 13 C-10.5 15.5 -10.5 15.5 -8 17 C-4.3282913 17.61195145 -2.71186432 17.48706506 0.375 15.375 C2.48706506 12.28813568 2.61195145 10.6717087 2 7 C0.5 4.5 0.5 4.5 -2 3 C-5.6717087 2.38804855 -7.28813568 2.51293494 -10.375 4.625 Z " fill="#000000" transform="translate(17,2)"/>
<path d="M0 0 C0.99 0.33 1.98 0.66 3 1 C1.44499019 4.81684226 -1.03595495 7.19195732 -4 10 C-5.32 9.34 -6.64 8.68 -8 8 C-8 6.68 -8 5.36 -8 4 C-7.236875 3.896875 -6.47375 3.79375 -5.6875 3.6875 C-2.82940576 2.95635961 -1.84257115 2.23048087 0 0 Z " fill="#000000" transform="translate(15,8)"/>
</svg>
