<?xml version="1.0" encoding="UTF-8"?>
<svg version="1.1" xmlns="http://www.w3.org/2000/svg" width="50" height="50">
<path d="M0 0 C5.56340585 3.36669624 9.53349183 8.25193794 11.5 14.4375 C12.30594257 22.2813829 12.59671889 30.02934467 7.5 36.4375 C3.04867668 41.14197914 -1.19064516 44.09747071 -7.76953125 44.7734375 C-16.04371997 44.8646634 -22.08428015 44.61560264 -28.2421875 38.7890625 C-34.17397269 32.28964236 -34.96296445 26.57688134 -34.80859375 17.88671875 C-34.22339005 11.3457711 -31.85547257 7.43687235 -27.0625 3.0625 C-19.84507341 -2.93248543 -8.52200107 -3.84066973 0 0 Z M-27.875 9 C-32.43649379 14.47623185 -32.12226676 20.59256568 -31.5 27.4375 C-29.77883043 33.09869631 -25.25380196 37.15064853 -20.5 40.4375 C-15.0029273 42.26985757 -8.53352755 42.6147627 -3.07421875 40.49609375 C2.22187345 37.31444891 6.09461411 33.17185878 8.5 27.4375 C9.43256519 20.56596704 9.16717526 14.80751171 5 9.125 C1.23402845 4.888282 -2.30028498 1.7228547 -8.171875 1.19921875 C-17.12574998 0.98332583 -21.76625484 2.19969878 -27.875 9 Z " fill="#000000" transform="translate(36.5,3.5625)"/>
<path d="M0 0 C4.8404001 2.60960701 8.06650639 6.09014417 9.796875 11.28125 C10.46163179 18.73524418 10.44121145 24.25616487 5.796875 30.28125 C0.39692227 35.28608423 -4.05234248 35.63143872 -11.1875 35.5625 C-16.73027207 35.04555753 -19.78938645 32.80659949 -23.578125 28.71875 C-27.13749657 23.37969265 -26.78151279 17.4828524 -26.203125 11.28125 C-24.60392 6.37933903 -21.45575292 3.11633528 -17.203125 0.28125 C-11.84906913 -1.50343529 -5.40672306 -1.76389547 0 0 Z M-21.578125 8.90625 C-23.78220393 13.48395239 -24.0002889 17.28677411 -23.203125 22.28125 C-20.87343569 27.11983548 -18.04171048 29.95156069 -13.203125 32.28125 C-8.20864911 33.0784139 -4.40582739 32.86032893 0.171875 30.65625 C3.75595213 27.41351355 6.39222741 24.81649104 7.1796875 19.8828125 C7.43571419 14.19902006 6.73314432 10.63186345 2.796875 6.28125 C-1.55373845 2.34498068 -5.12089506 1.64241081 -10.8046875 1.8984375 C-15.73836604 2.68589759 -18.33538855 5.32217287 -21.578125 8.90625 Z " fill="#000000" transform="translate(33.203125,7.71875)"/>
<path d="M0 0 C-1.16651426 5.92863717 -2.75519358 11.38798394 -5 17 C-5.66 17 -6.32 17 -7 17 C-8.25664978 14.09399739 -9 12.20395416 -9 9 C-9.94875 8.855625 -10.8975 8.71125 -11.875 8.5625 C-15 8 -15 8 -17 7 C-17 6.34 -17 5.68 -17 5 C-14.73117913 4.16080602 -12.46022973 3.32848276 -10.1875 2.5 C-9.54490234 2.26152344 -8.90230469 2.02304687 -8.24023438 1.77734375 C-5.35066261 0.72931254 -3.09923939 0 0 0 Z " fill="#000000" transform="translate(32,18)"/>
</svg>
