<svg width="121" height="16" viewBox="0 0 121 16" fill="none" xmlns="http://www.w3.org/2000/svg">
<path d="M0.82 15.5V0.599999H3.92V15.5H0.82ZM7.56219 15.5V0.599999H9.94219L17.9422 11.14L16.6622 11.44V0.599999H19.7622V15.5H17.3622L9.50219 4.88L10.6622 4.58V15.5H7.56219ZM30.5659 15.74C29.4993 15.74 28.5059 15.5467 27.5859 15.16C26.6659 14.7733 25.8593 14.2333 25.1659 13.54C24.4726 12.8467 23.9326 12.0333 23.5459 11.1C23.1593 10.1667 22.9659 9.14667 22.9659 8.04C22.9659 6.93333 23.1526 5.91333 23.5259 4.98C23.8993 4.03333 24.4259 3.22 25.1059 2.54C25.7859 1.84667 26.5793 1.31333 27.4859 0.939999C28.4059 0.553333 29.4059 0.359999 30.4859 0.359999C31.5659 0.359999 32.5326 0.539999 33.3859 0.9C34.2526 1.26 34.9859 1.74 35.5859 2.34C36.1859 2.94 36.6126 3.60667 36.8659 4.34L34.1259 5.66C33.8726 4.94 33.4259 4.34667 32.7859 3.88C32.1593 3.4 31.3926 3.16 30.4859 3.16C29.6059 3.16 28.8326 3.36667 28.1659 3.78C27.4993 4.19333 26.9793 4.76667 26.6059 5.5C26.2459 6.22 26.0659 7.06667 26.0659 8.04C26.0659 9.01333 26.2593 9.86667 26.6459 10.6C27.0326 11.3333 27.5593 11.9067 28.2259 12.32C28.9059 12.7333 29.6859 12.94 30.5659 12.94C31.2459 12.94 31.8793 12.8133 32.4659 12.56C33.0659 12.2933 33.5459 11.9133 33.9059 11.42C34.2793 10.9267 34.4659 10.3333 34.4659 9.64V8.4L35.8859 9.6H30.4859V7H37.5659V8.58C37.5659 9.79333 37.3659 10.8533 36.9659 11.76C36.5659 12.6533 36.0259 13.4 35.3459 14C34.6793 14.5867 33.9259 15.0267 33.0859 15.32C32.2593 15.6 31.4193 15.74 30.5659 15.74ZM40.4802 15.5V0.599999H50.5002V3.3H43.5802V6.68H50.1002V9.38H43.5802V12.8H50.5002V15.5H40.4802ZM53.2575 15.5V0.599999H55.6375L63.6375 11.14L62.3575 11.44V0.599999H65.4575V15.5H63.0575L55.1975 4.88L56.3575 4.58V15.5H53.2575ZM69.1012 15.5V0.599999H72.2013V15.5H69.1012ZM83.3034 15.74C82.1834 15.74 81.1434 15.5467 80.1834 15.16C79.2234 14.7733 78.3834 14.2333 77.6634 13.54C76.9568 12.8333 76.4034 12.0133 76.0034 11.08C75.6034 10.1467 75.4034 9.13333 75.4034 8.04C75.4034 6.94667 75.5968 5.93333 75.9834 5C76.3834 4.06667 76.9368 3.25333 77.6434 2.56C78.3634 1.86667 79.2034 1.32667 80.1634 0.939999C81.1234 0.553333 82.1701 0.359999 83.3034 0.359999C84.4368 0.359999 85.4834 0.553333 86.4434 0.939999C87.4034 1.32667 88.2368 1.86667 88.9434 2.56C89.6634 3.25333 90.2168 4.06667 90.6034 5C91.0034 5.93333 91.2034 6.94667 91.2034 8.04C91.2034 9.13333 91.0034 10.1467 90.6034 11.08C90.2034 12.0133 89.6434 12.8333 88.9234 13.54C88.2168 14.2333 87.3834 14.7733 86.4234 15.16C85.4634 15.5467 84.4234 15.74 83.3034 15.74ZM83.3034 12.94C83.9834 12.94 84.6101 12.82 85.1834 12.58C85.7701 12.34 86.2834 12.0067 86.7234 11.58C87.1634 11.14 87.5034 10.62 87.7434 10.02C87.9834 9.42 88.1034 8.76 88.1034 8.04C88.1034 7.32 87.9834 6.66667 87.7434 6.08C87.5034 5.48 87.1634 4.96 86.7234 4.52C86.2834 4.08 85.7701 3.74667 85.1834 3.52C84.6101 3.28 83.9834 3.16 83.3034 3.16C82.6234 3.16 81.9901 3.28 81.4034 3.52C80.8301 3.74667 80.3234 4.08 79.8834 4.52C79.4434 4.96 79.1034 5.48 78.8634 6.08C78.6234 6.66667 78.5034 7.32 78.5034 8.04C78.5034 8.76 78.6234 9.42 78.8634 10.02C79.1034 10.62 79.4434 11.14 79.8834 11.58C80.3234 12.0067 80.8301 12.34 81.4034 12.58C81.9901 12.82 82.6234 12.94 83.3034 12.94ZM100.322 15.74C99.1487 15.74 98.102 15.4933 97.182 15C96.262 14.5067 95.5354 13.8333 95.002 12.98C94.482 12.1133 94.222 11.1333 94.222 10.04V0.599999H97.322V9.84C97.322 10.4267 97.4487 10.96 97.702 11.44C97.9687 11.9067 98.3287 12.2733 98.782 12.54C99.2354 12.8067 99.7487 12.94 100.322 12.94C100.909 12.94 101.422 12.8067 101.862 12.54C102.315 12.2733 102.669 11.9067 102.922 11.44C103.189 10.96 103.322 10.4267 103.322 9.84V0.599999H106.422V10.04C106.422 11.1333 106.155 12.1133 105.622 12.98C105.102 13.8333 104.382 14.5067 103.462 15C102.542 15.4933 101.495 15.74 100.322 15.74ZM115.295 15.74C114.361 15.74 113.481 15.5733 112.655 15.24C111.841 14.8933 111.135 14.4067 110.535 13.78C109.948 13.1533 109.508 12.4133 109.215 11.56L111.755 10.42C112.128 11.2333 112.641 11.8733 113.295 12.34C113.961 12.8067 114.695 13.04 115.495 13.04C115.921 13.04 116.288 12.9733 116.595 12.84C116.901 12.7067 117.141 12.5267 117.315 12.3C117.488 12.06 117.575 11.78 117.575 11.46C117.575 11.1133 117.468 10.82 117.255 10.58C117.041 10.3267 116.708 10.1267 116.255 9.98L113.335 9.02C112.148 8.63333 111.255 8.08667 110.655 7.38C110.055 6.66 109.755 5.8 109.755 4.8C109.755 3.92 109.968 3.14667 110.395 2.48C110.835 1.81333 111.441 1.29333 112.215 0.919999C113.001 0.546666 113.901 0.359999 114.915 0.359999C115.808 0.359999 116.635 0.513333 117.395 0.819999C118.155 1.12667 118.808 1.56 119.355 2.12C119.915 2.68 120.335 3.35333 120.615 4.14L118.095 5.28C117.815 4.58667 117.395 4.04667 116.835 3.66C116.275 3.26 115.635 3.06 114.915 3.06C114.501 3.06 114.135 3.12667 113.815 3.26C113.495 3.39333 113.248 3.58667 113.075 3.84C112.901 4.08 112.815 4.36 112.815 4.68C112.815 5.02667 112.928 5.33333 113.155 5.6C113.381 5.85333 113.721 6.05333 114.175 6.2L117.035 7.12C118.235 7.50667 119.128 8.04667 119.715 8.74C120.315 9.43333 120.615 10.28 120.615 11.28C120.615 12.1467 120.388 12.92 119.935 13.6C119.481 14.2667 118.855 14.7933 118.055 15.18C117.268 15.5533 116.348 15.74 115.295 15.74Z" fill="white"/>
</svg>
