<?xml version="1.0" encoding="UTF-8"?>
<svg version="1.1" xmlns="http://www.w3.org/2000/svg" width="50" height="50">
<path d="M0 0 C3.38392885 1.87196064 4.67525258 3.00256151 5.875 6.6875 C6.14012754 13.71337992 5.27890725 18.72730787 2 25 C1.74715633 27.75146274 1.74715633 27.75146274 2 30 C2.60328125 30.17015625 3.2065625 30.3403125 3.828125 30.515625 C12.26326227 33.0733763 12.26326227 33.0733763 15 37 C15 38.32 15 39.64 15 41 C2.46 41 -10.08 41 -23 41 C-21.82165605 35.10828025 -21.82165605 35.10828025 -19 33 C-16.73828125 32.05078125 -16.73828125 32.05078125 -14.3125 31.3125 C-13.50425781 31.06113281 -12.69601563 30.80976562 -11.86328125 30.55078125 C-11.24839844 30.36902344 -10.63351563 30.18726562 -10 30 C-10.39769293 25.43790753 -10.39769293 25.43790753 -12.01171875 21.234375 C-13.45112042 17.98007557 -13.37824681 15.04124958 -13.4375 11.5 C-13.47746094 10.1903125 -13.51742188 8.880625 -13.55859375 7.53125 C-13 4 -13 4 -10.72265625 1.5625 C-6.94063186 -0.60795876 -4.23953149 -0.83934159 0 0 Z " fill="#000000" transform="translate(30,4)"/>
</svg>
